<svg width="150" height="150" viewBox="0 0 150 150" fill="none" xmlns="http://www.w3.org/2000/svg">
<g id="Frame">
<g id="A112 ,Agreement ,Estate ,Handshake ,House ,Real">
<g id="Group">
<path id="Vector" d="M99.3031 97.3506L97.5089 95.5506L103.203 89.8506C103.499 89.5506 103.648 89.2505 103.648 88.9505L104.241 86.5506C104.997 87.0006 105.887 86.8506 106.495 86.2506L116.696 76.0506C117.453 75.3006 117.453 74.1006 116.696 73.3506L93.446 50.1006C92.6898 49.3506 91.4887 49.3506 90.7473 50.1006L80.5456 60.3006C80.3973 60.4506 80.3974 60.6006 80.2491 60.6006C77.847 59.5506 75.2966 59.1006 72.8944 59.8506C70.7888 60.4506 69.2912 61.9505 67.497 63.1505C67.497 62.7005 67.3488 62.4006 66.9039 62.1006L56.7023 51.9005C55.946 51.1505 54.745 51.1505 54.0036 51.9005L30.7533 75.3006C30.0119 76.0506 30.0119 77.2506 30.7533 78.0006L40.955 88.2005C41.1032 88.3505 41.3997 88.6505 41.7111 88.6505L42.7639 92.1006C42.9122 92.4006 43.0605 92.7006 43.2087 92.8506L45.9075 95.5506L38.1079 103.201C35.8541 105.451 35.8541 109.351 38.1079 111.601C40.3618 113.851 44.2616 113.851 46.5006 111.601C47.9982 115.201 52.6542 116.401 55.6495 114.001C57.2954 117.751 62.3962 118.801 65.4063 115.951L65.8511 115.501C67.3488 119.401 72.5979 120.451 75.608 117.451L83.704 109.201C86.551 109.951 89.7094 108.601 90.9105 105.751C93.3126 108.151 97.3606 108.001 99.6145 105.451C101.72 103.351 101.572 99.6006 99.3179 97.3506H99.3031ZM92.0967 54.1505L112.797 74.8506L105.294 82.3506L84.5937 61.6505L92.0967 54.1505ZM70.952 65.2506C72.4496 64.0506 73.9472 63.0006 76.0528 63.3006C76.9573 63.4506 77.847 63.7506 78.7515 64.0506C79.656 64.5006 80.3974 64.9506 81.3019 64.5006L81.7467 64.2005L101.097 83.5506L100.044 87.6006L94.7954 93.0006L72.8944 71.1006C72.5979 70.8006 71.99 70.5006 71.5451 70.5006C69.8992 70.5006 67.9419 71.4006 66.4443 71.8506C64.5018 72.3006 62.5445 72.7506 60.5872 72.6006C59.6827 72.6006 56.3908 72.0006 56.5391 70.5006C56.6874 69.7506 57.7402 69.3006 58.1851 69.0006C58.9413 68.7006 59.6826 68.4006 60.4389 68.2506C61.3434 67.9506 62.5445 68.1005 63.4342 67.6505C64.7835 67.5005 66.2812 67.5006 67.6305 67.0506C68.9799 66.7506 70.0326 66.0006 70.9371 65.2506C69.4395 66.3006 72.4347 64.2006 70.9371 65.2506H70.952ZM34.8013 76.6505L55.5012 55.8006L63.0042 63.3006C62.8559 63.3006 62.8559 63.4506 62.7076 63.6006L62.2628 64.0506L62.1144 64.2005L61.9662 64.3506C58.2147 64.8006 50.2669 67.5005 53.2622 72.9005L42.0077 84.3006L34.8013 76.6505ZM56.9989 107.551L53.6922 110.851C52.0462 112.501 49.0362 110.551 50.089 108.451C50.5338 107.401 51.5866 106.801 50.697 105.601C50.089 104.551 48.5913 104.401 47.8499 105.301L43.9501 109.201C41.8446 111.151 38.701 108.151 40.8066 106.051L48.6062 98.4005L57.6068 107.401C57.3102 107.251 57.162 107.401 56.9989 107.551ZM62.6928 113.251C61.7882 114.151 60.4389 114.001 59.5492 113.251C58.793 112.501 58.6447 111.151 59.5492 110.251C59.6975 110.101 59.8458 109.951 59.8458 109.801L61.6399 111.751C62.0848 112.201 62.5445 112.501 63.1376 112.801L62.6928 113.251ZM72.8944 114.901C71.2485 116.551 68.5498 114.751 69.1429 112.651C70.1957 112.051 71.0854 111.001 71.5451 109.801L71.9899 110.251C73.0427 111.301 74.3921 111.901 75.8897 112.051L72.8944 114.901ZM96.7379 103.201C95.8334 104.101 94.484 103.951 93.5943 103.201L89.6946 99.3006C88.9383 98.5506 87.7373 98.5506 86.9959 99.3006C85.9431 100.351 86.6993 101.251 87.2924 102.301C88.7901 104.401 85.6465 106.801 83.8375 105.001L80.5309 101.701C78.885 100.051 76.1863 102.601 77.8322 104.401C78.7367 105.301 78.5884 106.501 77.8322 107.401C76.9277 108.151 75.5783 108.301 74.6886 107.401L70.4923 103.201C69.2912 102.001 67.1857 102.901 67.3488 104.551C67.3488 105.451 68.2532 106.051 68.4015 106.801C68.5498 107.551 68.4016 108.451 67.6453 109.051C67.4971 109.201 67.3487 109.351 67.2004 109.351C67.0522 109.351 66.9039 109.501 66.9039 109.501C66.1477 109.801 65.1098 109.501 64.5018 108.901L60.3055 104.551L49.8072 94.0506L46.204 90.4505L45.003 86.7005L52.2094 79.5006L56.2575 75.3006C60.7652 77.7006 66.4591 75.7506 70.952 74.5506L93.2978 96.9005L96.6044 100.051C97.6572 100.951 97.6572 102.451 96.7527 103.201C96.3079 103.651 97.6572 102.451 96.7527 103.201H96.7379Z" fill="#1AD079"/>
<path id="Vector_2" d="M42.4525 79.2003C45.4478 79.2003 45.4478 74.5503 42.4525 74.5503C39.4572 74.5503 39.4572 79.2003 42.4525 79.2003Z" fill="#1AD079"/>
<path id="Vector_3" d="M107.399 74.7C107.399 71.7 102.906 71.85 102.906 74.7C102.906 77.55 107.399 77.55 107.399 74.7C107.399 75.3 107.399 74.1 107.399 74.7Z" fill="#1AD079"/>
<path id="Vector_4" d="M36.7586 57.4503C39.7539 57.4503 42.4525 54.9003 42.4525 51.7503C42.4525 48.6003 39.9022 46.0503 36.7586 46.0503C33.6151 46.0503 31.0646 48.6003 31.0646 51.7503C31.2129 54.9003 33.7634 57.4503 36.7586 57.4503ZM36.7586 49.9503C39.1608 49.9503 39.1608 53.7003 36.7586 53.7003C34.3565 53.7003 34.3565 49.9503 36.7586 49.9503Z" fill="#1AD079"/>
<path id="Vector_5" d="M110.854 46.201C114.457 46.201 117.453 43.201 117.453 39.601C117.453 36.001 114.457 33.001 110.854 33.001C107.251 33.001 104.256 36.001 104.256 39.601C104.256 43.201 107.251 46.201 110.854 46.201ZM110.854 36.751C114.457 36.751 114.457 42.451 110.854 42.451C107.251 42.451 107.251 36.751 110.854 36.751Z" fill="#1AD079"/>
<path id="Vector_6" d="M104.256 106.2C101.854 106.2 101.854 109.95 104.256 109.95H117.453C119.855 109.95 119.855 106.2 117.453 106.2H104.256Z" fill="#1AD079"/>
<path id="Vector_7" d="M117.453 111.751H104.256C101.854 111.751 101.854 115.501 104.256 115.501H117.453C119.855 115.501 119.855 111.751 117.453 111.751Z" fill="#1AD079"/>
<path id="Vector_8" d="M31.1982 91.2002H36.5956C38.9977 91.2002 38.9977 87.4502 36.5956 87.4502H31.1982C28.6477 87.4502 28.6477 91.2002 31.1982 91.2002Z" fill="#1AD079"/>
<path id="Vector_9" d="M38.4044 94.951C38.4044 93.901 37.4999 93.001 36.462 93.001H31.0646C28.6624 93.001 28.6624 96.751 31.0646 96.751H36.462C37.5148 96.751 38.4044 96.001 38.4044 94.951Z" fill="#1AD079"/>
<path id="Vector_10" d="M61.1951 42.1505H61.4917V53.5506C61.4917 54.6006 62.3962 55.5006 63.4341 55.5006H69.5878C70.6406 55.5006 71.5451 54.6006 71.5451 53.5506V49.8006C71.5451 48.1506 74.0955 48.1506 74.0955 49.8006V53.5506C74.0955 54.6006 75 55.5006 76.0528 55.5006H82.0581C83.1109 55.5006 84.0154 54.6006 84.0154 53.5506V42.1505H84.4602C86.2544 42.1505 87.0107 39.7505 85.513 38.7006L74.1103 29.5506C73.3541 28.9506 72.4644 28.9506 71.7082 29.5506L60.0089 38.8506C58.6595 39.9006 59.4158 42.1505 61.2099 42.1505H61.1951ZM79.9377 51.7506H77.6838V49.8006C77.6838 47.1006 75.43 44.7006 72.583 44.7006C69.736 44.7006 67.4822 46.9506 67.4822 49.8006V51.7506H65.08V42.1505H79.7746V51.7506H79.9229H79.9377ZM72.583 33.6006L78.7366 38.5506H66.4443L72.5978 33.6006H72.583Z" fill="#1AD079"/>
</g>
</g>
</g>
</svg>
