<svg width="150" height="150" viewBox="0 0 150 150" fill="none" xmlns="http://www.w3.org/2000/svg">
<g id="Frame">
<g id="A102 ,Bank ,Dollar ,Building ,Estate">
<g id="Group">
<path id="Vector" d="M116.086 99.626H112.441V94.076C112.441 93.026 111.562 92.126 110.554 92.126H106.909V65.876H108.811C109.834 65.876 110.698 64.976 110.698 63.926V58.226H116.23C118.117 58.226 118.707 55.526 116.964 54.626L75.7211 34.226C74.4102 33.626 72.6671 34.976 71.5002 35.426C69.9012 36.176 68.4462 36.926 66.8328 37.676C63.7788 39.176 60.8545 40.676 57.9445 42.176C57.8005 34.976 50.3672 29.876 43.8126 32.876C36.9699 36.026 35.8031 45.776 41.767 50.426C39.2892 51.626 36.8115 52.826 34.3337 54.026C33.3109 54.776 32 55.226 32 56.576C32 57.626 32.8787 58.376 33.9015 58.376H39.7358V64.076C39.7358 65.126 40.6146 66.026 41.6229 66.026H43.5101V92.276H39.8655C38.8427 92.276 37.9639 93.176 37.9639 94.226V99.926H34.3193C33.2965 99.926 32.4178 100.826 32.4178 101.876V116.876C32.4178 117.926 33.2965 118.826 34.3193 118.826H116.071C117.094 118.826 117.973 117.926 117.973 116.876V101.576C117.973 100.526 117.094 99.626 116.071 99.626H116.086ZM103.409 92.126H97.8769V65.876H103.409V92.126ZM85.2 92.126V81.776C85.2 76.226 80.6766 71.426 75.1449 71.426C69.6131 71.426 65.0897 76.076 65.0897 81.776V92.126H55.9133V65.876H57.8005C58.8233 65.876 59.6876 64.976 59.6876 63.926V58.226H63.3322V65.726C63.3322 66.776 64.211 67.676 65.2194 67.676H85.3296C86.3524 67.676 87.2168 66.776 87.2168 65.726V58.226H90.8614V64.076C90.8614 65.126 91.7401 66.026 92.7629 66.026H94.6501V92.276H85.1712V92.126H85.2ZM68.7344 92.126V81.776C68.7344 78.776 70.6215 76.226 73.2577 75.476V92.126H68.7344ZM77.0464 75.626C79.6682 76.376 81.5698 78.926 81.5698 81.926V92.276H77.0464V75.626ZM66.9913 58.376H83.4569V64.076H66.9913V58.376ZM107.068 62.126H94.2467V58.376H106.924V62.126H107.068ZM74.8567 37.976L108.235 54.626H101.968L75.7355 41.726C73.5458 40.676 72.0909 44.126 74.1365 45.176L93.512 54.776H42.0695C43.3804 54.176 44.6913 53.426 46.1463 52.676C50.5112 53.426 54.8905 51.176 56.9361 47.126C62.7704 43.976 68.4462 41.126 74.8567 37.976ZM41.4933 42.476C41.4933 39.176 43.9711 36.326 47.1691 36.026C50.3816 35.726 53.4356 37.976 54.1703 41.126C54.905 44.876 52.4272 48.626 48.7825 49.076C44.8498 49.526 41.4933 46.376 41.4933 42.476ZM56.0718 58.376V62.126H43.2508V58.376H56.0718ZM46.8954 65.876H52.4272V92.126H46.8954V65.876ZM41.5077 95.876H108.84V99.626H41.5077V95.876ZM90.6165 107.126H59.7164V103.376H90.7606V107.126H90.6165ZM35.9759 103.376H56.0862V107.126H54.1991C53.1763 107.126 52.2975 108.026 52.2975 109.076V114.776H35.9759V103.376ZM56.0862 114.626V110.876H94.5636V114.626H56.0862ZM114.371 114.626H97.9058V109.076C97.9058 108.026 97.027 107.126 96.1627 107.126H94.2611V103.376H114.371V114.626Z" fill="#1AD079"/>
<path id="Vector_2" d="M46.8667 44.7259C46.4345 44.5759 45.6998 44.2759 45.4117 43.9759L44.533 45.7759C45.4117 46.3759 46.5786 46.6759 47.5869 46.8259V48.3259H48.4657V46.9759C49.9207 46.9759 51.3756 46.0759 51.3756 44.2759C51.3756 42.6259 50.0647 42.0259 48.7538 41.5759L48.3216 41.4259V39.7759C48.8979 39.9259 49.9207 40.0759 50.2088 40.5259L51.0875 38.8759C50.2088 38.4259 49.3444 37.9759 48.4657 37.9759V36.7759H47.5869V37.9759C46.4201 38.1259 45.2532 38.7259 44.9651 39.9259C44.533 41.7259 45.6998 42.6259 47.1548 43.0759L47.731 43.2259V44.8759C47.2988 45.0259 47.1548 44.8759 46.8523 44.7259C46.5642 44.7259 47.1404 44.8759 46.8523 44.7259H46.8667ZM48.1776 43.5259C49.2004 43.8259 49.4885 44.8759 48.1776 45.0259V43.5259ZM47.0107 40.9759C46.4345 40.3759 47.1548 39.7759 47.5869 39.7759V41.2759C47.4429 41.1259 47.1548 41.1259 47.0107 40.9759C47.1548 41.1259 46.8667 40.8259 47.0107 40.9759Z" fill="#1AD079"/>
</g>
</g>
</g>
</svg>
