<svg width="150" height="150" viewBox="0 0 150 150" fill="none" xmlns="http://www.w3.org/2000/svg">
<g id="Frame">
<g id="A115 ,Blueprint ,Document ,Home ,Pen">
<g id="Group">
<path id="Vector" d="M117.452 29.25H61.2098C60.157 29.25 59.2674 30.15 59.2674 31.2V36.9H53.5734C52.5206 36.9 51.6309 37.8 51.6309 38.85V44.55H45.937C44.8842 44.55 43.9945 45.45 43.9945 46.5V117.75C43.9945 118.8 44.899 119.7 45.937 119.7H102.18C103.232 119.7 104.137 118.8 104.137 117.75V112.05H109.831C110.884 112.05 111.788 111.15 111.788 110.1V104.4H117.482C118.535 104.4 119.439 103.5 119.439 102.45V31.2C119.291 30.15 118.387 29.25 117.482 29.25H117.452ZM100.504 115.5H47.9981V48H100.504V115.5ZM108.007 108H104.256V46.2C104.256 45.15 103.351 44.25 102.313 44.25H55.5158V40.5H108.022V108H108.007ZM115.51 100.5H111.758V38.7C111.758 37.65 110.854 36.75 109.801 36.75H63.004V33H115.51V100.5Z" fill="#1AD079"/>
<path id="Vector_2" d="M34.9496 51.75C31.806 51.75 29.2556 54.3 29.2556 57.45V98.7C29.2556 99 29.2556 99.15 29.4039 99.45L33.1554 108.9C33.7485 110.4 36.0023 110.4 36.6103 108.9L40.3618 99.45C40.5101 99.3 40.5101 99 40.5101 98.7V57.45C40.5101 54.3 37.9597 51.75 34.9644 51.75H34.9496ZM34.9496 55.5C36.0023 55.5 36.892 56.4 36.892 57.45V61.2H32.9923V57.45C32.9923 56.4 33.8968 55.5 34.9496 55.5ZM34.9496 102.9L32.9923 98.25V64.95H36.7438V98.4L34.9496 102.9Z" fill="#1AD079"/>
<path id="Vector_3" d="M53.707 64.6496H54.0036V78.8996C54.0036 79.9496 54.9081 80.8496 55.946 80.8496H62.0996C63.1524 80.8496 64.0421 79.9496 64.0421 78.8996V73.6496C64.0421 71.9996 66.5925 71.9996 66.5925 73.6496V78.8996C66.5925 79.9496 67.497 80.8496 68.5498 80.8496H74.5552C75.608 80.8496 76.5125 79.9496 76.5125 78.8996V64.6496H76.9573C78.7515 64.6496 79.5077 62.2496 78.0101 61.1996L66.6074 52.0496C65.8511 51.4496 64.9615 51.4496 64.2052 52.0496L52.5059 61.3496C51.1566 62.3996 51.9129 64.6496 53.707 64.6496ZM72.4496 77.0996H70.1958V73.6496C70.1958 70.9496 67.9419 68.5496 65.0949 68.5496C62.248 68.5496 59.9941 70.7996 59.9941 73.6496V77.0996H57.592V64.7996H72.2865L72.4348 77.0996H72.4496ZM65.0949 56.0996L71.2485 61.0496H58.9413L65.0949 56.0996Z" fill="#1AD079"/>
<path id="Vector_4" d="M94.9437 57.4497H83.6892C81.287 57.4497 81.287 61.1997 83.6892 61.1997H94.9437C97.3458 61.1997 97.3458 57.4497 94.9437 57.4497Z" fill="#1AD079"/>
<path id="Vector_5" d="M94.9437 63H83.6892C81.287 63 81.287 66.75 83.6892 66.75H94.9437C97.3458 66.75 97.3458 63 94.9437 63Z" fill="#1AD079"/>
<path id="Vector_6" d="M94.9437 68.6997H83.6892C81.287 68.6997 81.287 72.4497 83.6892 72.4497H94.9437C97.3458 72.4497 97.3458 68.6997 94.9437 68.6997Z" fill="#1AD079"/>
<path id="Vector_7" d="M94.9437 74.25H83.6892C81.287 74.25 81.287 78 83.6892 78H94.9437C97.3458 78 97.3458 74.25 94.9437 74.25Z" fill="#1AD079"/>
<path id="Vector_8" d="M94.9437 87.4497H53.6922C51.2901 87.4497 51.2901 91.1997 53.6922 91.1997H94.9437C97.3459 91.1997 97.3459 87.4497 94.9437 87.4497Z" fill="#1AD079"/>
<path id="Vector_9" d="M94.9437 93H74.2437C71.8416 93 71.8416 96.75 74.2437 96.75H94.9437C97.3458 96.75 97.3458 93 94.9437 93Z" fill="#1AD079"/>
<path id="Vector_10" d="M53.7069 102.45H70.507C72.9091 102.45 72.9091 98.6997 70.507 98.6997H53.7069C51.1565 98.6997 51.1565 102.45 53.7069 102.45Z" fill="#1AD079"/>
<path id="Vector_11" d="M94.9436 98.6997H85.4981C83.096 98.6997 83.096 102.45 85.4981 102.45H94.9436C97.3457 102.45 97.3457 98.6997 94.9436 98.6997Z" fill="#1AD079"/>
<path id="Vector_12" d="M53.707 96.75H63.0042C65.4063 96.75 65.4063 93 63.0042 93H53.5587C51.1566 93 51.1566 96.75 53.707 96.75Z" fill="#1AD079"/>
<path id="Vector_13" d="M94.9437 104.25H53.6922C51.2901 104.25 51.2901 108 53.6922 108H94.9437C97.3459 108 97.3459 104.25 94.9437 104.25Z" fill="#1AD079"/>
</g>
</g>
</g>
</svg>
