<svg width="150" height="150" viewBox="0 0 150 150" fill="none" xmlns="http://www.w3.org/2000/svg">
<g id="Frame">
<g id="A105 ,Office ,Building ,Real ,Estate">
<g id="Group">
<path id="Vector" d="M109.95 48H89.2497C88.1969 48 87.2924 48.9 87.2924 49.95V93C87.2924 94.05 88.1969 94.95 89.2497 94.95H109.95C111.002 94.95 111.892 94.05 111.892 93V49.95C111.744 48.9 110.839 48 109.95 48ZM98.6952 68.7V51.75H100.489V68.7H98.6952ZM107.992 72.45V74.4H91.1922V72.45H107.992ZM107.992 78V79.95H91.1922V78H107.992ZM91.1922 83.7H107.992V85.5H91.1922V83.7ZM107.992 68.7H104.241V51.75H107.992V68.7ZM91.1922 51.75H94.9437V68.7H91.1922V51.75ZM91.1922 91.2V89.25H107.992V91.2H91.1922Z" fill="#1AD079"/>
<path id="Vector_2" d="M117.453 40.4996H93.0012V31.0496C93.0012 29.9996 92.0967 29.0996 91.0587 29.0996H61.0617C60.0089 29.0996 59.1192 29.9996 59.1192 31.0496V81.7496H51.6163C50.5635 81.7496 49.6738 82.6496 49.6738 83.6996V100.5C49.6738 101.55 50.5783 102.45 51.6163 102.45H53.5587V115.5H40.5101V108.6L45.7592 101.55C46.3523 100.65 46.2041 99.5996 45.3144 98.8496C44.4247 98.0996 43.3571 98.3996 42.6157 99.2996L40.3618 102.3V97.6496L47.1086 92.5496C48.0131 91.9496 48.1613 90.7496 47.5534 89.8496C46.9603 88.9496 45.7592 88.7996 44.8547 89.3996L39.4573 93.4496L38.4045 90.2996C38.108 89.2496 37.0552 88.7996 36.0024 89.0996C34.9496 89.3996 34.5048 90.4496 34.8013 91.4996L36.5955 96.8996V98.3996L32.0878 94.9496C31.1833 94.3496 30.1453 94.4996 29.3891 95.3996C28.796 96.2996 28.9443 97.3496 29.8339 98.0996L36.5807 103.2V115.5H30.8867C29.8339 115.5 28.9443 116.4 28.9443 117.45C28.9443 118.5 29.8488 119.4 30.8867 119.4H117.438C118.491 119.4 119.395 118.5 119.395 117.45V42.4496C119.247 41.3996 118.342 40.4996 117.438 40.4996H117.453ZM89.2497 32.9996V40.4996H81.7467C80.6939 40.4996 79.8043 41.3996 79.8043 42.4496V46.1996H72.3013V42.4496C72.3013 41.3996 71.3968 40.4996 70.3588 40.4996H62.8559V32.9996H89.2497ZM106.198 109.95H64.9466V108H106.198V109.95ZM64.9466 113.7H106.198V115.5H64.9466V113.7ZM106.198 104.25H64.9466V102.3H106.346V104.25H106.198ZM68.6981 46.1996H63.0042V44.2496H68.6981V46.1996ZM72.4496 57.4496V55.4996H79.9526V57.4496H72.4496ZM79.9526 61.1996V62.9996H72.4496V61.0496H79.9526V61.1996ZM68.6981 57.4496H63.0042V55.4996H68.6981V57.4496ZM68.6981 61.1996V62.9996H63.0042V61.0496H68.6981V61.1996ZM68.6981 66.7496V68.6996H63.0042V66.7496H68.6981ZM72.4496 66.7496H79.9526V68.6996H72.4496V66.7496ZM79.9526 51.7496H72.4496V49.7996H79.9526V51.7496ZM68.6981 51.7496H63.0042V49.7996H68.6981V51.7496ZM63.0042 72.4496H68.6981V74.3996H63.0042V72.4496ZM72.4496 72.4496H79.9526V74.3996H72.4496V72.4496ZM79.9526 77.9996V81.7496H72.4496V77.9996H79.9526ZM63.0042 77.9996H68.6981V81.7496H63.0042V77.9996ZM53.707 85.4996H79.9526V98.6996H53.5587V85.4996H53.707ZM57.4585 115.5V102.3H61.21V115.5H57.4585ZM109.964 115.5V100.5C109.964 99.4496 109.06 98.5496 108.007 98.5496H83.704V44.2496H115.51V115.5H109.964Z" fill="#1AD079"/>
<path id="Vector_3" d="M35.8541 49.9499H36.9069C37.3517 52.0499 39.309 53.6999 41.5629 53.6999H51.0083C53.5587 53.6999 55.6643 51.5999 55.6643 49.0499C55.6643 46.4999 53.5587 44.3999 51.0083 44.3999H46.204C45.7592 42.2999 43.8019 40.6499 41.5481 40.6499H35.8541C33.3037 40.6499 31.1981 42.7499 31.1981 45.2999C31.1981 47.8499 33.3037 49.9499 35.8541 49.9499ZM35.8541 44.2499H41.5481C41.9929 44.2499 42.4525 44.6999 42.4525 45.1499V45.4499C42.3043 46.0499 42.3043 46.6499 42.7491 47.0999C43.0457 47.5499 43.6536 47.8499 44.2468 47.8499H50.9935C51.4383 47.8499 51.898 48.2999 51.898 48.7499C51.898 49.1999 51.4531 49.6499 50.9935 49.6499H41.5481C41.1032 49.6499 40.6435 49.1999 40.6435 48.7499V48.4499C40.7918 47.8499 40.7918 47.2499 40.347 46.7999C40.0504 46.3499 39.4425 46.0499 38.8493 46.0499H35.8541C35.4093 46.0499 34.9496 45.5999 34.9496 45.1499C34.9496 44.6999 35.2462 44.2499 35.8541 44.2499Z" fill="#1AD079"/>
</g>
</g>
</g>
</svg>
