<svg width="24" height="24" viewBox="0 0 24 24" fill="none" xmlns="http://www.w3.org/2000/svg">
<g id="Frame 66">
<path id="Vector 19" d="M19 22.72V2.2C19 2.08954 18.9105 2 18.8 2H12.9229C12.8699 2 12.819 2.02107 12.7815 2.05858L11.1601 3.68M11.1601 3.68C12.4445 4.53628 13.3197 5.80171 12.906 7.37855C12.8751 7.49628 12.7426 7.5513 12.6337 7.49687L7.45434 4.90717C7.34274 4.85137 7.30906 4.70732 7.38921 4.61169C8.70368 3.04324 10.261 3.50019 11.1601 3.68ZM7.8 6.48L5 8.72M8.92 7.6L7.8 9.28M10.6 8.16L10.04 12.08" stroke="#686868" stroke-width="1.3" stroke-linecap="round"/>
</g>
</svg>
