<svg width="24" height="24" viewBox="0 0 24 24" fill="none" xmlns="http://www.w3.org/2000/svg">
<g id="Frame 60">
<path id="Vector 15" d="M6.40299 5.48657V2.2C6.40299 2.08954 6.49253 2 6.60298 2H15.5612C15.6717 2 15.7612 2.08954 15.7612 2.2V13.1433C15.7612 13.2537 15.6717 13.3433 15.5612 13.3433H12.8418C12.7313 13.3433 12.6418 13.4328 12.6418 13.5433V16.2627C12.6418 16.3731 12.5522 16.4627 12.4418 16.4627H3.2C3.08954 16.4627 3 16.3731 3 16.2627V5.88657C3 5.77611 3.08954 5.68657 3.2 5.68657H6.20299C6.31344 5.68657 6.40299 5.59702 6.40299 5.48657Z" stroke="#686868" stroke-width="1.5" stroke-linecap="round"/>
<path id="Vector 16" d="M18.5977 13.6269H20.2991M22.0006 13.6269H20.2991M20.2991 13.6269V2.2C20.2991 2.08954 20.2096 2 20.0991 2H18.5977H22.0006" stroke="#686868" stroke-width="1.5" stroke-linecap="round"/>
<path id="Vector 17" d="M12.6418 22.418L12.6418 20.7165M12.6418 19.015L12.6418 20.7165M12.6418 20.7165L3.2 20.7165C3.08954 20.7165 3 20.806 3 20.9165L3 22.418L3 19.015" stroke="#686868" stroke-width="1.5" stroke-linecap="round"/>
</g>
</svg>
