<svg width="24" height="24" viewBox="0 0 24 24" fill="none" xmlns="http://www.w3.org/2000/svg">
<g id="Frame 61">
<path id="Vector 14" d="M13.2237 9.05921V2.2C13.2237 2.08954 13.3132 2 13.4237 2H21.3C21.4105 2 21.5 2.08954 21.5 2.2V9.05921M13.2237 9.05921H16.1447M13.2237 9.05921H11.2763M19.7961 9.05921H21.5M21.5 9.05921V17.0921M11.2763 9.05921H3.2C3.08954 9.05921 3 9.14875 3 9.25921V17.0921M11.2763 9.05921V12.4671M21.5 17.0921V19.4451C21.5 19.5435 21.4284 19.6273 21.3312 19.6427L11.2763 21.2303L3.23119 22.5005C3.1098 22.5197 3 22.4259 3 22.303V17.0921M21.5 17.0921H11.2763M8.35526 17.0921H11.2763M4.94737 17.0921H3M11.2763 17.0921V15.6316" stroke="#686868" stroke-width="1.5" stroke-linecap="round"/>
</g>
</svg>
