<svg width="18" height="20" viewBox="0 0 18 20" fill="none" xmlns="http://www.w3.org/2000/svg">
<path d="M15 15.166C15.5304 15.166 16.0391 15.3767 16.4142 15.7518C16.7893 16.1269 17 16.6356 17 17.166C17 17.6964 16.7893 18.2052 16.4142 18.5802C16.0391 18.9553 15.5304 19.166 15 19.166C14.4696 19.166 13.9609 18.9553 13.5858 18.5802C13.2107 18.2052 13 17.6964 13 17.166C13 16.6356 13.2107 16.1269 13.5858 15.7518C13.9609 15.3767 14.4696 15.166 15 15.166ZM15 15.166V5.16602C15 5.16602 15 3.16602 13 3.16602H10M3 5.16602C3.53043 5.16602 4.03914 4.9553 4.41421 4.58023C4.78929 4.20516 5 3.69645 5 3.16602C5 2.63558 4.78929 2.12687 4.41421 1.7518C4.03914 1.37673 3.53043 1.16602 3 1.16602C2.46957 1.16602 1.96086 1.37673 1.58579 1.7518C1.21071 2.12687 1 2.63558 1 3.16602C1 3.69645 1.21071 4.20516 1.58579 4.58023C1.96086 4.9553 2.46957 5.16602 3 5.16602ZM3 5.16602V15.166C3 15.166 3 17.166 5 17.166H8" stroke="white" stroke-width="1.125" stroke-linecap="round" stroke-linejoin="round"/>
</svg>
