<svg width="24" height="24" viewBox="0 0 24 24" fill="none" xmlns="http://www.w3.org/2000/svg">
<g id="Frame 49">
<path id="Vector 6" d="M4 9.5V3.5C4 3.22386 4.22386 3 4.5 3H10.5C10.7761 3 11 3.22386 11 3.5V9.5C11 9.77614 10.7761 10 10.5 10H4.5C4.22386 10 4 9.77614 4 9.5Z" stroke-width="1.5" stroke-linecap="round"/>
<path id="Vector 7" d="M14 9.5V3.5C14 3.22386 14.2239 3 14.5 3H20.5C20.7761 3 21 3.22386 21 3.5V9.5C21 9.77614 20.7761 10 20.5 10H14.5C14.2239 10 14 9.77614 14 9.5Z" stroke-width="1.5" stroke-linecap="round"/>
<path id="Vector 8" d="M14 19.5V13.5C14 13.2239 14.2239 13 14.5 13H20.5C20.7761 13 21 13.2239 21 13.5V19.5C21 19.7761 20.7761 20 20.5 20H14.5C14.2239 20 14 19.7761 14 19.5Z" stroke-width="1.5" stroke-linecap="round"/>
<path id="Vector 9" d="M4 19.5V13.5C4 13.2239 4.22386 13 4.5 13H10.5C10.7761 13 11 13.2239 11 13.5V19.5C11 19.7761 10.7761 20 10.5 20H4.5C4.22386 20 4 19.7761 4 19.5Z" stroke-width="1.5" stroke-linecap="round"/>
</g>
</svg>
