<svg width="16" height="16" viewBox="0 0 16 16" fill="none" xmlns="http://www.w3.org/2000/svg">
<g id="ion:home-outline">
<path id="Vector" d="M2.5 6.62451V13.9995C2.5 14.1321 2.55268 14.2593 2.64645 14.3531C2.74021 14.4468 2.86739 14.4995 3 14.4995H6V10.2495C6 10.0506 6.07902 9.85983 6.21967 9.71918C6.36032 9.57853 6.55109 9.49951 6.75 9.49951H9.25C9.44891 9.49951 9.63968 9.57853 9.78033 9.71918C9.92098 9.85983 10 10.0506 10 10.2495V14.4995H13C13.1326 14.4995 13.2598 14.4468 13.3536 14.3531C13.4473 14.2593 13.5 14.1321 13.5 13.9995V6.62451" stroke="#1AD079" stroke-linecap="round" stroke-linejoin="round"/>
<path id="Vector_2" d="M15 7.99945L8.34031 1.62445C8.18406 1.45945 7.81875 1.45758 7.65969 1.62445L1 7.99945M12.5 5.5932V1.99945H11V4.1557" stroke="#1AD079" stroke-linecap="round" stroke-linejoin="round"/>
</g>
</svg>
