<svg width="24" height="24" viewBox="0 0 24 24" fill="none" xmlns="http://www.w3.org/2000/svg">
<g id="Frame 50">
<path id="Vector 6" d="M3 9.5V3.5C3 3.22386 3.22386 3 3.5 3H9.5C9.77614 3 10 3.22386 10 3.5V9.5C10 9.77614 9.77614 10 9.5 10H3.5C3.22386 10 3 9.77614 3 9.5Z" stroke-width="1.5" stroke-linecap="round"/>
<path id="Vector 10" d="M14 4H21" stroke-width="1.5" stroke-linecap="round"/>
<path id="Vector 13" d="M14 11H21" stroke-width="1.5" stroke-linecap="round"/>
<path id="Vector 12" d="M14 19H21" stroke-width="1.5" stroke-linecap="round"/>
<path id="Vector 9" d="M3 19.5V13.5C3 13.2239 3.22386 13 3.5 13H9.5C9.77614 13 10 13.2239 10 13.5V19.5C10 19.7761 9.77614 20 9.5 20H3.5C3.22386 20 3 19.7761 3 19.5Z" stroke-width="1.5" stroke-linecap="round"/>
</g>
</svg>
