<svg width="25" height="24" viewBox="0 0 25 24" fill="none" xmlns="http://www.w3.org/2000/svg">
<g id="ion:map-outline">
<path id="Vector" d="M15.875 6.0006V21.7506M9.125 2.2506V18.0006M15.1845 5.8431L9.81547 2.4081C9.6019 2.30142 9.36595 2.24725 9.12723 2.25011C8.88852 2.25296 8.65393 2.31275 8.44297 2.42451L3.14891 5.9767C3.02846 6.0405 2.92769 6.13592 2.8574 6.2527C2.78712 6.36948 2.74999 6.50321 2.75 6.63951V20.5051C2.74999 20.6345 2.78343 20.7616 2.84707 20.8742C2.91071 20.9868 3.00239 21.0811 3.1132 21.1478C3.22402 21.2145 3.3502 21.2514 3.47949 21.2549C3.60879 21.2585 3.7368 21.2285 3.85109 21.1679L8.43641 18.1778C8.64909 18.0651 8.88576 18.0053 9.12644 18.0033C9.36712 18.0013 9.60473 18.0573 9.81922 18.1665L15.0627 21.5884C15.2753 21.6968 15.5107 21.7528 15.7493 21.7519C15.9879 21.751 16.2229 21.6932 16.4347 21.5833L21.8455 18.0236C21.9674 17.9603 22.0696 17.8648 22.1409 17.7474C22.2123 17.63 22.25 17.4953 22.25 17.3579V3.49607C22.25 3.36673 22.2166 3.23958 22.1529 3.12698C22.0893 3.01438 21.9976 2.92015 21.8868 2.85344C21.776 2.78674 21.6498 2.74982 21.5205 2.74629C21.3912 2.74275 21.2632 2.77271 21.1489 2.83326L16.5552 5.8267C16.3444 5.93814 16.1102 5.99776 15.8718 6.00062C15.6335 6.00347 15.3979 5.94947 15.1845 5.8431Z" stroke="white" stroke-width="1.5" stroke-linecap="round" stroke-linejoin="round"/>
</g>
</svg>
