<svg width="24" height="24" viewBox="0 0 24 24" fill="none" xmlns="http://www.w3.org/2000/svg">
<g id="ion:map-outline">
<path id="Vector" d="M15.375 6.0006V21.7506M8.625 2.2506V18.0006M14.6845 5.8431L9.31547 2.4081C9.1019 2.30142 8.86595 2.24725 8.62723 2.25011C8.38852 2.25296 8.15393 2.31275 7.94297 2.42451L2.64891 5.9767C2.52846 6.0405 2.42769 6.13592 2.3574 6.2527C2.28712 6.36948 2.24999 6.50321 2.25 6.63951V20.5051C2.24999 20.6345 2.28343 20.7616 2.34707 20.8742C2.41071 20.9868 2.50239 21.0811 2.6132 21.1478C2.72402 21.2145 2.8502 21.2514 2.97949 21.2549C3.10879 21.2585 3.2368 21.2285 3.35109 21.1679L7.93641 18.1778C8.14909 18.0651 8.38576 18.0053 8.62644 18.0033C8.86712 18.0013 9.10473 18.0573 9.31922 18.1665L14.5627 21.5884C14.7753 21.6968 15.0107 21.7528 15.2493 21.7519C15.4879 21.751 15.7229 21.6932 15.9347 21.5833L21.3455 18.0236C21.4674 17.9603 21.5696 17.8648 21.6409 17.7474C21.7123 17.63 21.75 17.4953 21.75 17.3579V3.49607C21.75 3.36673 21.7166 3.23958 21.6529 3.12698C21.5893 3.01438 21.4976 2.92015 21.3868 2.85344C21.276 2.78674 21.1498 2.74982 21.0205 2.74629C20.8912 2.74275 20.7632 2.77271 20.6489 2.83326L16.0552 5.8267C15.8444 5.93814 15.6102 5.99776 15.3718 6.00062C15.1335 6.00347 14.8979 5.94947 14.6845 5.8431Z" stroke-width="1.5" stroke-linecap="round" stroke-linejoin="round"/>
</g>
</svg>
