<svg width="32" height="32" viewBox="0 0 32 32" fill="none" xmlns="http://www.w3.org/2000/svg">
<g id="iconamoon:phone-light">
<path id="Vector" d="M5.46205 10.613C6.41298 14.3232 8.3436 17.7096 11.0519 20.4178C13.7602 23.1261 17.1466 25.0567 20.8567 26.0077C23.7114 26.7343 26.1367 24.2797 26.1367 21.333V19.9997C26.1367 19.2637 25.5381 18.673 24.8061 18.5997C23.592 18.48 22.4003 18.1933 21.2647 17.7477L19.2381 19.7743C15.9382 18.1925 13.2772 15.5316 11.6954 12.2317L13.7221 10.205C13.276 9.06947 12.9888 7.87777 12.8687 6.66367C12.7967 5.93034 12.2061 5.33301 11.4701 5.33301H10.1367C7.19005 5.33301 4.73538 7.75834 5.46205 10.613Z" stroke="black" stroke-width="2" stroke-linecap="round" stroke-linejoin="round"/>
</g>
</svg>
