<svg width="24" height="24" viewBox="0 0 24 24" fill="none" xmlns="http://www.w3.org/2000/svg">
<g id="basil:share-outline">
<path id="Vector" fill-rule="evenodd" clip-rule="evenodd" d="M14.3142 5.33287C14.3143 4.55413 14.5878 3.79999 15.0873 3.20135C15.5869 2.60271 16.2808 2.19736 17.0488 2.05565C17.8168 1.91395 18.6103 2.04484 19.2916 2.42559C19.9729 2.80635 20.499 3.41295 20.7785 4.1401C21.0581 4.86725 21.0735 5.66904 20.822 6.40632C20.5706 7.1436 20.0681 7.76982 19.4019 8.1763C18.7358 8.58277 17.9479 8.74382 17.175 8.63152C16.4022 8.51921 15.6931 8.14063 15.171 7.56149L12.3764 9.08142L9.24947 10.8629C9.68663 11.6301 9.80128 12.5387 9.56833 13.3899L15.171 16.437C15.7192 15.8297 16.4719 15.4444 17.2862 15.3541C18.1006 15.2638 18.9198 15.4748 19.5884 15.9471C20.2569 16.4195 20.7282 17.1202 20.9127 17.9162C21.0973 18.7122 20.9822 19.548 20.5893 20.2649C20.1965 20.9819 19.5532 21.53 18.7817 21.8052C18.0103 22.0804 17.1643 22.0635 16.4045 21.7577C15.6447 21.4519 15.024 20.8785 14.6602 20.1465C14.2965 19.4144 14.2151 18.5746 14.4315 17.7867L8.82878 14.7406C8.40179 15.2142 7.8477 15.5559 7.23205 15.7252C6.61641 15.8946 5.965 15.8846 5.35488 15.6964C4.74477 15.5082 4.20149 15.1497 3.78933 14.6632C3.37717 14.1768 3.11339 13.5828 3.02918 12.9516C2.94498 12.3204 3.04389 11.6783 3.3142 11.1013C3.5845 10.5244 4.01491 10.0367 4.55447 9.69606C5.09403 9.35538 5.72018 9.17595 6.35882 9.17898C6.99746 9.18201 7.62186 9.36739 8.15815 9.71318L11.6245 7.73789L14.4315 6.21078C14.3534 5.92464 14.314 5.6294 14.3142 5.33287ZM17.6571 3.53808C17.4207 3.53808 17.1867 3.58451 16.9683 3.67471C16.7499 3.7649 16.5514 3.8971 16.3843 4.06377C16.2172 4.23043 16.0846 4.42828 15.9941 4.64604C15.9036 4.86379 15.8571 5.09718 15.8571 5.33287C15.8571 5.56857 15.9036 5.80195 15.9941 6.01971C16.0846 6.23746 16.2172 6.43532 16.3843 6.60198C16.5514 6.76864 16.7499 6.90084 16.9683 6.99104C17.1867 7.08124 17.4207 7.12766 17.6571 7.12766C18.1345 7.12766 18.5923 6.93857 18.9299 6.60198C19.2675 6.26539 19.4571 5.80888 19.4571 5.33287C19.4571 4.85687 19.2675 4.40035 18.9299 4.06377C18.5923 3.72718 18.1345 3.53808 17.6571 3.53808ZM6.3427 10.7172C5.86531 10.7172 5.40746 10.9063 5.06989 11.2429C4.73233 11.5795 4.54268 12.036 4.54268 12.512C4.54268 12.988 4.73233 13.4445 5.06989 13.7811C5.40746 14.1177 5.86531 14.3068 6.3427 14.3068C6.82009 14.3068 7.27794 14.1177 7.61551 13.7811C7.95307 13.4445 8.14272 12.988 8.14272 12.512C8.14272 12.036 7.95307 11.5795 7.61551 11.2429C7.27794 10.9063 6.82009 10.7172 6.3427 10.7172ZM15.8571 18.6656C15.8571 18.1896 16.0467 17.7331 16.3843 17.3965C16.7219 17.0599 17.1797 16.8708 17.6571 16.8708C18.1345 16.8708 18.5923 17.0599 18.9299 17.3965C19.2675 17.7331 19.4571 18.1896 19.4571 18.6656C19.4571 19.1416 19.2675 19.5981 18.9299 19.9347C18.5923 20.2713 18.1345 20.4604 17.6571 20.4604C17.1797 20.4604 16.7219 20.2713 16.3843 19.9347C16.0467 19.5981 15.8571 19.1416 15.8571 18.6656Z" fill="#1AD079"/>
</g>
</svg>
