<svg width="25" height="24" viewBox="0 0 25 24" fill="none" xmlns="http://www.w3.org/2000/svg">
<g id="system-uicons:filtering">
<path id="Vector" d="M21.3101 6.857H8.7387M6.45299 6.857H3.02441M21.3101 18.2856H8.7387M6.45299 18.2856H3.02441M15.5958 12.5713H3.02441M21.3101 12.5713H17.8816M7.59584 4.57129C7.89895 4.57129 8.18964 4.6917 8.40396 4.90602C8.61829 5.12035 8.7387 5.41104 8.7387 5.71415V7.99986C8.7387 8.30297 8.61829 8.59366 8.40396 8.80798C8.18964 9.02231 7.89895 9.14272 7.59584 9.14272C7.29274 9.14272 7.00205 9.02231 6.78772 8.80798C6.57339 8.59366 6.45299 8.30297 6.45299 7.99986V5.71415C6.45299 5.41104 6.57339 5.12035 6.78772 4.90602C7.00205 4.6917 7.29274 4.57129 7.59584 4.57129ZM7.59584 15.9999C7.89895 15.9999 8.18964 16.1203 8.40396 16.3346C8.61829 16.5489 8.7387 16.8396 8.7387 17.1427V19.4284C8.7387 19.7315 8.61829 20.0222 8.40396 20.2366C8.18964 20.4509 7.89895 20.5713 7.59584 20.5713C7.29274 20.5713 7.00205 20.4509 6.78772 20.2366C6.57339 20.0222 6.45299 19.7315 6.45299 19.4284V17.1427C6.45299 16.8396 6.57339 16.5489 6.78772 16.3346C7.00205 16.1203 7.29274 15.9999 7.59584 15.9999ZM16.7387 10.2856C17.0418 10.2856 17.3325 10.406 17.5468 10.6203C17.7611 10.8346 17.8816 11.1253 17.8816 11.4284V13.7141C17.8816 14.0173 17.7611 14.3079 17.5468 14.5223C17.3325 14.7366 17.0418 14.857 16.7387 14.857C16.4356 14.857 16.1449 14.7366 15.9306 14.5223C15.7163 14.3079 15.5958 14.0173 15.5958 13.7141V11.4284C15.5958 11.1253 15.7163 10.8346 15.9306 10.6203C16.1449 10.406 16.4356 10.2856 16.7387 10.2856Z" stroke="white" stroke-width="1.5" stroke-linecap="round" stroke-linejoin="round"/>
</g>
</svg>
