<svg width="32" height="32" viewBox="0 0 32 32" fill="none" xmlns="http://www.w3.org/2000/svg">
<g id="formkit:time">
<path id="Vector" d="M16 30C8.28 30 2 23.72 2 16C2 8.28 8.28 2 16 2C23.72 2 30 8.28 30 16C30 23.72 23.72 30 16 30ZM16 4C9.38 4 4 9.38 4 16C4 22.62 9.38 28 16 28C22.62 28 28 22.62 28 16C28 9.38 22.62 4 16 4Z" fill="black"/>
<path id="Vector_2" d="M20.0001 21C19.8201 21 19.6401 20.96 19.4801 20.86L14.4801 17.86C14.332 17.771 14.2097 17.6448 14.1255 17.4939C14.0413 17.3431 13.9981 17.1728 14.0001 17V9C14.0001 8.44 14.4401 8 15.0001 8C15.5601 8 16.0001 8.44 16.0001 9V16.44L20.5201 19.14C20.7062 19.2541 20.8501 19.4258 20.9299 19.6291C21.0098 19.8323 21.0211 20.056 20.9623 20.2663C20.9035 20.4766 20.7778 20.662 20.6041 20.7944C20.4305 20.9268 20.2184 20.999 20.0001 21Z" fill="black"/>
</g>
</svg>
