<?xml version="1.0" encoding="utf-8"?><svg viewBox="0 0 800 800" xmlns="http://www.w3.org/2000/svg" xmlns:xlink="http://www.w3.org/1999/xlink"><style>:root>svg{display:none}:root>svg:target{display:block}</style><svg fill="none" viewBox="0 0 150 150" id="advantage-1" xmlns="http://www.w3.org/2000/svg"><g fill="#1AD079"><path d="M109.95 48h-20.7c-1.053 0-1.958.9-1.958 1.95V93c0 1.05.905 1.95 1.958 1.95h20.7c1.052 0 1.942-.9 1.942-1.95V49.95c-.148-1.05-1.053-1.95-1.942-1.95ZM98.695 68.7V51.75h1.794V68.7h-1.794Zm9.297 3.75v1.95h-16.8v-1.95h16.8Zm0 5.55v1.95h-16.8V78h16.8Zm-16.8 5.7h16.8v1.8h-16.8v-1.8Zm16.8-15h-3.751V51.75h3.751V68.7Zm-16.8-16.95h3.752V68.7h-3.752V51.75Zm0 39.45v-1.95h16.8v1.95h-16.8Z"/><path d="M117.453 40.5H93.001v-9.45c0-1.05-.904-1.95-1.942-1.95H61.062c-1.053 0-1.943.9-1.943 1.95v50.7h-7.503c-1.053 0-1.942.9-1.942 1.95v16.8c0 1.05.904 1.95 1.942 1.95h1.943v13.05H40.51v-6.9l5.25-7.05c.592-.9.444-1.95-.446-2.7-.89-.75-1.957-.45-2.698.45l-2.254 3v-4.65l6.747-5.1c.904-.6 1.052-1.8.444-2.7-.593-.9-1.794-1.05-2.698-.45l-5.398 4.05-1.053-3.15c-.296-1.05-1.349-1.5-2.402-1.2-1.052.3-1.497 1.35-1.2 2.4l1.794 5.4v1.5l-4.508-3.45c-.905-.6-1.943-.45-2.699.45-.593.9-.445 1.95.445 2.7l6.747 5.1v12.3h-5.694c-1.053 0-1.943.9-1.943 1.95 0 1.05.905 1.95 1.943 1.95h86.551c1.053 0 1.957-.9 1.957-1.95v-75c-.148-1.05-1.053-1.95-1.957-1.95h.015ZM89.25 33v7.5h-7.503c-1.053 0-1.943.9-1.943 1.95v3.75h-7.503v-3.75c0-1.05-.904-1.95-1.942-1.95h-7.503V33H89.25Zm16.948 76.95H64.947V108h41.251v1.95Zm-41.251 3.75h41.251v1.8H64.947v-1.8Zm41.251-9.45H64.947v-1.95h41.399v1.95h-.148Zm-37.5-58.05h-5.694v-1.95h5.694v1.95Zm3.752 11.25V55.5h7.503v1.95H72.45Zm7.503 3.75V63H72.45v-1.95h7.503v.15Zm-11.255-3.75h-5.694V55.5h5.694v1.95Zm0 3.75V63h-5.694v-1.95h5.694v.15Zm0 5.55v1.95h-5.694v-1.95h5.694Zm3.752 0h7.503v1.95H72.45v-1.95Zm7.503-15H72.45V49.8h7.503v1.95Zm-11.255 0h-5.694V49.8h5.694v1.95Zm-5.694 20.7h5.694v1.95h-5.694v-1.95Zm9.446 0h7.503v1.95H72.45v-1.95ZM79.953 78v3.75H72.45V78h7.503Zm-16.949 0h5.694v3.75h-5.694V78Zm-9.297 7.5h26.246v13.2H53.559V85.5h.148Zm3.752 30v-13.2h3.751v13.2h-3.752Zm52.505 0v-15c0-1.05-.904-1.95-1.957-1.95H83.704v-54.3h31.806v71.25h-5.546Z"/><path d="M35.854 49.95h1.053c.445 2.1 2.402 3.75 4.656 3.75h9.445c2.55 0 4.656-2.1 4.656-4.65 0-2.55-2.105-4.65-4.656-4.65h-4.804c-.445-2.1-2.402-3.75-4.656-3.75h-5.694c-2.55 0-4.656 2.1-4.656 4.65 0 2.55 2.106 4.65 4.656 4.65Zm0-5.7h5.694c.445 0 .904.45.904.9v.3c-.148.6-.148 1.2.297 1.65.297.45.905.75 1.498.75h6.746c.445 0 .905.45.905.9s-.445.9-.905.9h-9.445c-.445 0-.904-.45-.904-.9v-.3c.148-.6.148-1.2-.297-1.65-.297-.45-.904-.75-1.498-.75h-2.995c-.445 0-.904-.45-.904-.9s.296-.9.904-.9Z"/></g></svg><svg fill="none" viewBox="0 0 150 150" id="advantage-2" xmlns="http://www.w3.org/2000/svg"><g fill="#1AD079"><path d="m99.303 97.35-1.794-1.8 5.694-5.7c.296-.3.445-.6.445-.9l.593-2.4c.756.45 1.646.3 2.254-.3l10.201-10.2c.757-.75.757-1.95 0-2.7L93.446 50.1a1.9 1.9 0 0 0-2.699 0L80.546 60.3c-.149.15-.149.3-.297.3-2.402-1.05-4.952-1.5-7.355-.75-2.105.6-3.603 2.1-5.397 3.3 0-.45-.148-.75-.593-1.05L56.702 51.9a1.9 1.9 0 0 0-2.698 0l-23.25 23.4a1.917 1.917 0 0 0 0 2.7l10.201 10.2c.148.15.445.45.756.45l1.053 3.45c.148.3.296.6.445.75l2.698 2.7-7.8 7.651c-2.253 2.25-2.253 6.15 0 8.4 2.255 2.25 6.155 2.25 8.394 0 1.497 3.6 6.153 4.8 9.149 2.4 1.645 3.75 6.746 4.8 9.756 1.95l.445-.45c1.498 3.9 6.747 4.95 9.757 1.95l8.096-8.25c2.847.75 6.005-.6 7.207-3.45 2.402 2.4 6.45 2.25 8.704-.3 2.105-2.1 1.957-5.85-.297-8.1h-.015Zm-7.206-43.2 20.7 20.7-7.503 7.5-20.7-20.7 7.503-7.5Zm-21.145 11.1c1.498-1.2 2.995-2.25 5.1-1.95.905.15 1.795.45 2.7.75.904.45 1.645.9 2.55.45l.445-.3 19.35 19.35-1.053 4.05-5.249 5.4-21.9-21.9c-.297-.3-.905-.6-1.35-.6-1.646 0-3.603.9-5.1 1.35-1.943.45-3.9.9-5.858.75-.904 0-4.196-.6-4.048-2.1.148-.75 1.201-1.2 1.646-1.5.756-.3 1.498-.6 2.254-.75.904-.3 2.105-.15 2.995-.6 1.35-.15 2.847-.15 4.197-.6 1.349-.3 2.402-1.05 3.306-1.8-1.498 1.05 1.498-1.05 0 0h.015Zm-36.15 11.4 20.7-20.85 7.502 7.5c-.148 0-.148.15-.296.3l-.445.45-.149.15-.148.15c-3.751.45-11.7 3.15-8.704 8.55L42.008 84.3 34.8 76.65Zm22.197 30.901-3.307 3.3c-1.646 1.65-4.656-.3-3.603-2.4.445-1.05 1.498-1.65.608-2.85-.608-1.05-2.106-1.2-2.847-.3l-3.9 3.9c-2.105 1.95-5.249-1.05-3.143-3.15l7.8-7.65 9 9c-.297-.15-.445 0-.608.15Zm5.694 5.7c-.905.9-2.254.75-3.144 0-.756-.75-.904-2.1 0-3 .148-.15.297-.3.297-.45l1.794 1.95c.445.45.904.75 1.498 1.05l-.445.45Zm10.201 1.65c-1.645 1.65-4.344-.15-3.751-2.25 1.053-.6 1.942-1.65 2.402-2.85l.445.45c1.053 1.05 2.402 1.65 3.9 1.8l-2.996 2.85Zm23.844-11.7c-.905.9-2.254.75-3.144 0l-3.9-3.9a1.9 1.9 0 0 0-2.698 0c-1.053 1.05-.297 1.95.296 3 1.498 2.1-1.645 4.5-3.454 2.7l-3.307-3.3c-1.646-1.65-4.345.9-2.699 2.7.905.9.756 2.1 0 3-.904.75-2.254.9-3.143 0l-4.197-4.2c-1.2-1.2-3.306-.3-3.143 1.35 0 .9.904 1.5 1.052 2.25.149.75 0 1.65-.756 2.25-.148.15-.296.3-.445.3-.148 0-.296.15-.296.15-.756.3-1.794 0-2.402-.6l-4.196-4.35-10.499-10.5-3.603-3.6-1.201-3.75 7.206-7.2 4.048-4.2c4.508 2.4 10.202.45 14.695-.75L93.298 96.9l3.306 3.15c1.053.9 1.053 2.4.149 3.15-.445.45.904-.75 0 0h-.015Z"/><path d="M42.453 79.2c2.995 0 2.995-4.65 0-4.65-2.996 0-2.996 4.65 0 4.65ZM107.399 74.7c0-3-4.493-2.85-4.493 0s4.493 2.85 4.493 0c0 .6 0-.6 0 0ZM36.759 57.45c2.995 0 5.694-2.55 5.694-5.7 0-3.15-2.55-5.7-5.694-5.7a5.697 5.697 0 0 0-5.694 5.7c.148 3.15 2.698 5.7 5.694 5.7Zm0-7.5c2.402 0 2.402 3.75 0 3.75-2.403 0-2.403-3.75 0-3.75ZM110.854 46.201c3.603 0 6.599-3 6.599-6.6 0-3.6-2.996-6.6-6.599-6.6s-6.598 3-6.598 6.6c0 3.6 2.995 6.6 6.598 6.6Zm0-9.45c3.603 0 3.603 5.7 0 5.7s-3.603-5.7 0-5.7ZM104.256 106.2c-2.402 0-2.402 3.75 0 3.75h13.197c2.402 0 2.402-3.75 0-3.75h-13.197ZM117.453 111.751h-13.197c-2.402 0-2.402 3.75 0 3.75h13.197c2.402 0 2.402-3.75 0-3.75ZM31.198 91.2h5.398c2.402 0 2.402-3.75 0-3.75h-5.398c-2.55 0-2.55 3.75 0 3.75ZM38.404 94.951c0-1.05-.904-1.95-1.942-1.95h-5.397c-2.403 0-2.403 3.75 0 3.75h5.397c1.053 0 1.942-.75 1.942-1.8ZM61.195 42.15h.297v11.4c0 1.05.904 1.95 1.942 1.95h6.154c1.053 0 1.957-.9 1.957-1.95V49.8c0-1.65 2.55-1.65 2.55 0v3.75c0 1.05.905 1.95 1.958 1.95h6.005c1.053 0 1.957-.9 1.957-1.95v-11.4h.445c1.794 0 2.55-2.4 1.053-3.45L74.11 29.55c-.756-.6-1.646-.6-2.402 0l-11.7 9.3c-1.349 1.05-.592 3.3 1.202 3.3h-.015Zm18.743 9.6h-2.254V49.8c0-2.7-2.254-5.1-5.101-5.1a5.06 5.06 0 0 0-5.1 5.1v1.95H65.08v-9.6h14.695v9.6H79.938ZM72.583 33.6l6.154 4.95H66.444l6.154-4.95h-.015Z"/></g></svg><svg fill="none" viewBox="0 0 150 150" id="advantage-3" xmlns="http://www.w3.org/2000/svg"><g fill="#1AD079"><path d="M116.086 99.626h-3.645v-5.55c0-1.05-.879-1.95-1.887-1.95h-3.645v-26.25h1.902c1.023 0 1.887-.9 1.887-1.95v-5.7h5.532c1.887 0 2.477-2.7.734-3.6l-41.243-20.4c-1.31-.6-3.054.75-4.22 1.2-1.6.75-3.055 1.5-4.668 2.25-3.054 1.5-5.978 3-8.889 4.5-.144-7.2-7.577-12.3-14.131-9.3-6.843 3.15-8.01 12.9-2.046 17.55l-7.433 3.6c-1.023.75-2.334 1.2-2.334 2.55 0 1.05.879 1.8 1.901 1.8h5.835v5.7c0 1.05.879 1.95 1.887 1.95h1.887v26.25h-3.645c-1.022 0-1.901.9-1.901 1.95v5.7h-3.645c-1.023 0-1.901.9-1.901 1.95v15c0 1.05.879 1.95 1.901 1.95h81.752c1.023 0 1.902-.9 1.902-1.95v-15.3c0-1.05-.879-1.95-1.902-1.95h.015Zm-12.677-7.5h-5.532v-26.25h5.532v26.25Zm-18.209 0v-10.35c0-5.55-4.523-10.35-10.055-10.35s-10.055 4.65-10.055 10.35v10.35h-9.177v-26.25h1.888c1.022 0 1.887-.9 1.887-1.95v-5.7h3.644v7.5c0 1.05.879 1.95 1.887 1.95h20.11c1.023 0 1.888-.9 1.888-1.95v-7.5h3.644v5.85c0 1.05.88 1.95 1.902 1.95h1.887v26.25h-9.479v-.15h.029Zm-16.466 0v-10.35c0-3 1.888-5.55 4.524-6.3v16.65h-4.524Zm8.312-16.5c2.622.75 4.524 3.3 4.524 6.3v10.35h-4.524v-16.65Zm-10.055-17.25h16.466v5.7H66.99v-5.7Zm40.077 3.75H94.247v-3.75h12.677v3.75h.144Zm-32.211-24.15 33.378 16.65h-6.267l-26.233-12.9c-2.19-1.05-3.644 2.4-1.599 3.45l19.376 9.6H42.069c1.311-.6 2.622-1.35 4.077-2.1 4.365.75 8.745-1.5 10.79-5.55 5.834-3.15 11.51-6 17.92-9.15Zm-33.364 4.5c0-3.3 2.478-6.15 5.676-6.45 3.213-.3 6.267 1.95 7.001 5.1.735 3.75-1.743 7.5-5.388 7.95-3.932.45-7.289-2.7-7.289-6.6Zm14.579 15.9v3.75H43.25v-3.75h12.82Zm-9.177 7.5h5.532v26.25h-5.532v-26.25Zm-5.387 30h67.332v3.75H41.508v-3.75Zm49.108 11.25h-30.9v-3.75h31.045v3.75h-.144Zm-54.64-3.75h20.11v3.75H54.2c-1.023 0-1.901.9-1.901 1.95v5.7H35.975v-11.4Zm20.11 11.25v-3.75h38.478v3.75H56.086Zm58.285 0H97.906v-5.55c0-1.05-.879-1.95-1.743-1.95H94.26v-3.75h20.11v11.25Z"/><path d="M46.867 44.726c-.432-.15-1.167-.45-1.455-.75l-.879 1.8c.879.6 2.046.9 3.054 1.05v1.5h.879v-1.35c1.455 0 2.91-.9 2.91-2.7 0-1.65-1.311-2.25-2.622-2.7l-.432-.15v-1.65c.576.15 1.599.3 1.887.75l.878-1.65c-.878-.45-1.743-.9-2.621-.9v-1.2h-.88v1.2c-1.166.15-2.333.75-2.62 1.95-.433 1.8.734 2.7 2.189 3.15l.576.15v1.65c-.432.15-.576 0-.879-.15-.288 0 .288.15 0 0h.015Zm1.31-1.2c1.023.3 1.312 1.35 0 1.5v-1.5Zm-1.166-2.55c-.577-.6.144-1.2.576-1.2v1.5c-.144-.15-.432-.15-.576-.3.144.15-.144-.15 0 0Z"/></g></svg><svg fill="none" viewBox="0 0 150 150" id="advantage-4" xmlns="http://www.w3.org/2000/svg"><g fill="#1AD079"><path d="M117.452 29.25H61.21c-1.053 0-1.943.9-1.943 1.95v5.7h-5.694c-1.052 0-1.942.9-1.942 1.95v5.7h-5.694c-1.053 0-1.942.9-1.942 1.95v71.25c0 1.05.904 1.95 1.942 1.95h56.243c1.052 0 1.957-.9 1.957-1.95v-5.7h5.694c1.053 0 1.957-.9 1.957-1.95v-5.7h5.694c1.053 0 1.957-.9 1.957-1.95V31.2c-.148-1.05-1.052-1.95-1.957-1.95h-.03Zm-16.948 86.25H47.998V48h52.506v67.5Zm7.503-7.5h-3.751V46.2c0-1.05-.905-1.95-1.943-1.95H55.516V40.5h52.506V108h-.015Zm7.503-7.5h-3.752V38.7c0-1.05-.904-1.95-1.957-1.95H63.004V33h52.506v67.5ZM34.95 51.75a5.696 5.696 0 0 0-5.694 5.7V98.7c0 .3 0 .45.148.75l3.751 9.45c.593 1.5 2.847 1.5 3.455 0l3.752-9.45c.148-.15.148-.45.148-.75V57.45c0-3.15-2.55-5.7-5.546-5.7h-.014Zm0 3.75c1.052 0 1.942.9 1.942 1.95v3.75h-3.9v-3.75c0-1.05.905-1.95 1.958-1.95Zm0 47.4-1.958-4.65v-33.3h3.752V98.4l-1.794 4.5Z"/><path d="M53.707 64.65h.297V78.9c0 1.05.904 1.95 1.942 1.95H62.1c1.052 0 1.942-.9 1.942-1.95v-5.25c0-1.65 2.55-1.65 2.55 0v5.25c0 1.05.905 1.95 1.958 1.95h6.005c1.053 0 1.957-.9 1.957-1.95V64.65h.445c1.794 0 2.55-2.4 1.053-3.45l-11.403-9.15c-.756-.6-1.645-.6-2.402 0l-11.7 9.3c-1.348 1.05-.592 3.3 1.202 3.3ZM72.45 77.1h-2.254v-3.45c0-2.7-2.254-5.1-5.101-5.1a5.06 5.06 0 0 0-5.1 5.1v3.45h-2.403V64.8h14.695l.148 12.3h.015Zm-7.355-21 6.154 4.95H58.94l6.154-4.95ZM94.944 57.45H83.689c-2.402 0-2.402 3.75 0 3.75h11.255c2.402 0 2.402-3.75 0-3.75ZM94.944 63H83.689c-2.402 0-2.402 3.75 0 3.75h11.255c2.402 0 2.402-3.75 0-3.75ZM94.944 68.7H83.689c-2.402 0-2.402 3.75 0 3.75h11.255c2.402 0 2.402-3.75 0-3.75ZM94.944 74.25H83.689c-2.402 0-2.402 3.75 0 3.75h11.255c2.402 0 2.402-3.75 0-3.75ZM94.944 87.45H53.692c-2.402 0-2.402 3.75 0 3.75h41.252c2.402 0 2.402-3.75 0-3.75ZM94.944 93h-20.7c-2.402 0-2.402 3.75 0 3.75h20.7c2.402 0 2.402-3.75 0-3.75ZM53.707 102.45h16.8c2.402 0 2.402-3.75 0-3.75h-16.8c-2.55 0-2.55 3.75 0 3.75ZM94.944 98.7h-9.446c-2.402 0-2.402 3.75 0 3.75h9.446c2.402 0 2.402-3.75 0-3.75ZM53.707 96.75h9.297c2.402 0 2.402-3.75 0-3.75H53.56c-2.402 0-2.402 3.75.148 3.75ZM94.944 104.25H53.692c-2.402 0-2.402 3.75 0 3.75h41.252c2.402 0 2.402-3.75 0-3.75Z"/></g></svg><svg fill="none" viewBox="0 0 24 24" id="arow" xmlns="http://www.w3.org/2000/svg"><path d="m7 9 5.5 5.5L18 9" stroke="#5A5A5A" stroke-width="1.5" stroke-linecap="round"/></svg><svg fill="none" viewBox="0 0 11 19" id="arrow-left" xmlns="http://www.w3.org/2000/svg"><path d="m1 18 8-8.5L1 1" stroke="#1AD079" stroke-width="1.5" stroke-linecap="round"/></svg><svg fill="none" viewBox="0 0 11 19" id="arrow-right" xmlns="http://www.w3.org/2000/svg"><path opacity=".4" d="M10 18 2 9.5 10 1" stroke="#1AD079" stroke-width="1.5" stroke-linecap="round"/></svg><svg fill="none" viewBox="0 0 24 24" id="card-icon-1" xmlns="http://www.w3.org/2000/svg"><path d="M13.224 9.06V2.2c0-.11.09-.2.2-.2H21.3c.11 0 .2.09.2.2v6.86m-8.276 0h2.92m-2.92 0h-1.948m8.52 0H21.5m0 0v8.032M11.276 9.06H3.2a.2.2 0 0 0-.2.2v7.833m8.276-8.033v3.408M21.5 17.092v2.353a.2.2 0 0 1-.169.198L11.276 21.23 3.231 22.5A.2.2 0 0 1 3 22.303v-5.21m18.5 0H11.276m-2.92 0h2.92m-6.329 0H3m8.276 0v-1.461" stroke="#686868" stroke-width="1.5" stroke-linecap="round"/></svg><svg fill="none" viewBox="0 0 24 24" id="card-icon-2" xmlns="http://www.w3.org/2000/svg"><g stroke="#686868" stroke-width="1.5" stroke-linecap="round"><path d="M6.403 5.487V2.2c0-.11.09-.2.2-.2h8.958c.11 0 .2.09.2.2v10.943a.2.2 0 0 1-.2.2h-2.72a.2.2 0 0 0-.2.2v2.72a.2.2 0 0 1-.2.2H3.2a.2.2 0 0 1-.2-.2V5.887c0-.11.09-.2.2-.2h3.003a.2.2 0 0 0 .2-.2ZM18.598 13.627h1.701m1.702 0h-1.702m0 0V2.2a.2.2 0 0 0-.2-.2h-1.501H22M12.642 22.418v-1.701m0-1.702v1.701m0 0H3.2a.2.2 0 0 0-.2.2v1.502-3.403"/></g></svg><svg fill="none" viewBox="0 0 24 24" id="card-icon-3" xmlns="http://www.w3.org/2000/svg"><path d="M1 6v4.105M1 19v-2.395m0-2.395v-4.105m0 4.105h6.759M1 14.21v2.395m21-2.395H7.759M22 10.447v6.158M22 19v-2.395m-21-6.5c2.172 0 6.566.821 6.759 4.105M1 16.605h21" stroke="#686868" stroke-width="1.3" stroke-linecap="round"/></svg><svg fill="none" viewBox="0 0 24 24" id="card-icon-4" xmlns="http://www.w3.org/2000/svg"><path d="M19 22.72V2.2a.2.2 0 0 0-.2-.2h-5.877a.2.2 0 0 0-.142.059l-1.62 1.621m0 0c1.284.856 2.159 2.122 1.745 3.699a.19.19 0 0 1-.272.118l-5.18-2.59a.193.193 0 0 1-.065-.295C8.704 3.043 10.261 3.5 11.16 3.68ZM7.8 6.48 5 8.72M8.92 7.6 7.8 9.28m2.8-1.12-.56 3.92" stroke="#686868" stroke-width="1.3" stroke-linecap="round"/></svg><svg fill="none" viewBox="0 0 24 24" id="compare" xmlns="http://www.w3.org/2000/svg"><g stroke="#000" stroke-width="1.5" stroke-linecap="round" stroke-linejoin="round"><path d="M18 17a2 2 0 1 1 0 4 2 2 0 0 1 0-4Zm0 0V7s0-2-2-2h-3M6 7a2 2 0 1 0 0-4 2 2 0 0 0 0 4Zm0 0v10s0 2 2 2h3"/><path d="M15 7.5 12.5 5 15 2.5m-6.5 14L11 19l-2.5 2.5"/></g></svg><svg viewBox="0 0 48 48" fill="none" id="email-successfully" xmlns="http://www.w3.org/2000/svg"><path d="M44 24V9H4v30h20M31 36l5 4 8-10" stroke="#0164D2" stroke-width="4" stroke-linecap="round" stroke-linejoin="round"/><path d="m4 9 20 15L44 9" stroke="#0164D2" stroke-width="4" stroke-linecap="round" stroke-linejoin="round"/></svg><svg fill="none" viewBox="0 0 24 24" id="grid" xmlns="http://www.w3.org/2000/svg"><path d="M4 9.5v-6a.5.5 0 0 1 .5-.5h6a.5.5 0 0 1 .5.5v6a.5.5 0 0 1-.5.5h-6a.5.5 0 0 1-.5-.5ZM14 9.5v-6a.5.5 0 0 1 .5-.5h6a.5.5 0 0 1 .5.5v6a.5.5 0 0 1-.5.5h-6a.5.5 0 0 1-.5-.5ZM14 19.5v-6a.5.5 0 0 1 .5-.5h6a.5.5 0 0 1 .5.5v6a.5.5 0 0 1-.5.5h-6a.5.5 0 0 1-.5-.5ZM4 19.5v-6a.5.5 0 0 1 .5-.5h6a.5.5 0 0 1 .5.5v6a.5.5 0 0 1-.5.5h-6a.5.5 0 0 1-.5-.5Z"/></svg><svg fill="none" viewBox="0 0 16 16" id="home" xmlns="http://www.w3.org/2000/svg"><g stroke="#1AD079" stroke-linecap="round" stroke-linejoin="round"><path d="M2.5 6.625v7.374a.5.5 0 0 0 .5.5h3v-4.25a.75.75 0 0 1 .75-.75h2.5a.75.75 0 0 1 .75.75v4.25h3a.5.5 0 0 0 .5-.5V6.625"/><path d="M15 8 8.34 1.623c-.156-.165-.521-.166-.68 0L1 8m11.5-2.406V2H11v2.157"/></g></svg><svg fill="none" viewBox="0 0 24 24" id="like" xmlns="http://www.w3.org/2000/svg"><path d="M7.5 4A5.5 5.5 0 0 0 2 9.5C2 15 8.5 20 12 21.163 15.5 20 22 15 22 9.5a5.5 5.5 0 0 0-10-3.163A5.494 5.494 0 0 0 7.5 4Z" stroke="#000" stroke-width="1.5" stroke-linecap="round" stroke-linejoin="round"/></svg><svg fill="none" viewBox="0 0 24 24" id="list" xmlns="http://www.w3.org/2000/svg"><path d="M3 9.5v-6a.5.5 0 0 1 .5-.5h6a.5.5 0 0 1 .5.5v6a.5.5 0 0 1-.5.5h-6a.5.5 0 0 1-.5-.5ZM14 4h7M14 11h7M14 19h7M3 19.5v-6a.5.5 0 0 1 .5-.5h6a.5.5 0 0 1 .5.5v6a.5.5 0 0 1-.5.5h-6a.5.5 0 0 1-.5-.5Z"/></svg><svg fill="none" viewBox="0 0 24 25" id="location" xmlns="http://www.w3.org/2000/svg"><g stroke="#686868" stroke-width="1.5" stroke-linecap="round" stroke-linejoin="round"><path d="M12 2.75c-3.727 0-6.75 2.878-6.75 6.422 0 4.078 4.5 10.54 6.152 12.773a.739.739 0 0 0 1.196 0c1.652-2.231 6.152-8.692 6.152-12.773 0-3.544-3.023-6.422-6.75-6.422Z"/><path d="M12 11.75a2.25 2.25 0 1 0 0-4.5 2.25 2.25 0 0 0 0 4.5Z"/></g></svg><svg fill="none" viewBox="0 0 24 24" id="map" xmlns="http://www.w3.org/2000/svg"><path d="M15.375 6v15.75m-6.75-19.5V18m6.06-12.157-5.37-3.435a1.5 1.5 0 0 0-1.372.017L2.649 5.977a.75.75 0 0 0-.399.663v13.865a.75.75 0 0 0 1.101.663l4.585-2.99a1.5 1.5 0 0 1 1.383-.012l5.244 3.422a1.499 1.499 0 0 0 1.372-.005l5.41-3.56a.75.75 0 0 0 .405-.665V3.496a.75.75 0 0 0-1.101-.663l-4.594 2.994a1.5 1.5 0 0 1-1.37.016Z"/></svg><svg fill="none" viewBox="0 0 24 24" id="phone" xmlns="http://www.w3.org/2000/svg"><path d="M5 4h4l2 5-2.5 1.5a11 11 0 0 0 5 5L15 13l5 2v4a2 2 0 0 1-2 2A16 16 0 0 1 3 6a2 2 0 0 1 2-2Z" stroke="#1AD079" stroke-width="1.5" stroke-linecap="round" stroke-linejoin="round"/></svg><svg fill="none" viewBox="0 0 20 20" id="search" xmlns="http://www.w3.org/2000/svg"><path d="M12.19 12a6.5 6.5 0 1 0-9.38-9 6.5 6.5 0 0 0 9.38 9Zm0 0L19 18.81" stroke="#183546" stroke-width="1.5"/></svg><svg fill="none" viewBox="0 0 32 32" id="solar_arrow-up-linear" xmlns="http://www.w3.org/2000/svg"><path d="M8.457 23.543 23.543 8.458m0 0V19.77m0-11.313H12.23" stroke="#1AD079" stroke-width="2" stroke-linecap="round" stroke-linejoin="round"/></svg><svg fill="none" viewBox="0 0 24 24" id="sort" xmlns="http://www.w3.org/2000/svg"><g stroke="#000" stroke-width="1.5" stroke-linecap="round"><path d="M7.5 4v15m0 0 4.5-4.09M7.5 19 3 14.91M13 4h9M13 7h7M13 11h5"/></g></svg><svg fill="none" viewBox="0 0 40 40" id="telegram" xmlns="http://www.w3.org/2000/svg"><rect width="40" height="40" rx="20" fill="#27A6E5"/><path d="m28 12.602-3.005 15.69s-.42 1.088-1.576.566l-6.934-5.505-.033-.017c.937-.87 8.2-7.633 8.518-7.94.491-.475.186-.757-.384-.399l-10.73 7.056-4.138-1.442s-.652-.24-.714-.762c-.064-.523.735-.805.735-.805l16.874-6.855S28 11.558 28 12.602Z" fill="#FEFEFE"/></svg><svg fill="none" viewBox="0 0 40 40" id="viber" xmlns="http://www.w3.org/2000/svg"><rect width="40" height="40" rx="20" fill="#7C509A"/><path d="M26.254 9.546a30.984 30.984 0 0 0-11.581 0c-1.686.364-3.812 2.402-4.178 4.003-.66 3.13-.66 6.333 0 9.463.44 1.601 2.565 3.64 4.178 4.003.073 0 .146.073.146.146v4.585c0 .219.294.364.44.146l2.2-2.256s1.758-1.82 2.052-2.111c0 0 .073-.073.146-.073 2.199.073 4.471-.146 6.67-.51 1.686-.364 3.812-2.402 4.178-4.003.66-3.13.66-6.333 0-9.463-.44-1.528-2.565-3.566-4.251-3.93Zm.073 13.684c-.366.728-.806 1.31-1.539 1.674l-.66.219c-.293-.073-.513-.146-.733-.219-2.345-.946-4.544-2.256-6.303-4.149a17.504 17.504 0 0 1-2.42-3.64c-.292-.654-.586-1.236-.806-1.892-.22-.582.147-1.164.514-1.6.366-.438.806-.729 1.319-.947.366-.219.733-.073 1.026.218.586.728 1.173 1.456 1.613 2.257.293.51.22 1.091-.294 1.455-.146.073-.22.146-.366.292-.073.072-.22.145-.293.29-.147.22-.147.437-.074.656.587 1.674 1.686 2.984 3.372 3.712.293.146.513.218.88.218.513-.072.733-.655 1.1-.946.366-.291.806-.291 1.245-.073.367.219.733.51 1.173.801.367.291.733.51 1.1.8.22.146.293.51.146.874Zm-3.078-5.459c-.147 0-.074 0 0 0-.293 0-.367-.146-.44-.364 0-.145 0-.364-.073-.51a1.382 1.382 0 0 0-.514-.8l-.44-.219c-.22-.072-.366-.072-.586-.072-.22-.073-.293-.219-.293-.437 0-.146.22-.291.367-.291 1.172.073 2.052.728 2.199 2.11v.292c0 .145-.074.291-.22.291Zm-.733-3.203c-.367-.145-.733-.29-1.173-.364-.147 0-.367-.072-.513-.072-.22 0-.367-.146-.293-.364 0-.219.146-.364.366-.292.733.073 1.393.219 2.053.51 1.319.655 2.052 1.747 2.272 3.203v.946c-.074.291-.587.364-.66 0 0-.073-.073-.218-.073-.291 0-.655-.147-1.31-.44-1.893-.44-.655-.953-1.091-1.54-1.383Zm3.958 4.368c-.22 0-.367-.219-.367-.437 0-.437-.073-.874-.146-1.31-.293-2.33-2.2-4.222-4.471-4.586-.367-.073-.733-.073-1.027-.146-.22 0-.513 0-.586-.29-.073-.22.147-.437.367-.437h.146c.147 0 3.005.072 0 0 3.079.072 5.644 2.11 6.157 5.168.073.51.147 1.019.147 1.6.146.22 0 .438-.22.438Z" fill="#fff"/></svg><svg fill="none" viewBox="0 0 40 40" id="wa" xmlns="http://www.w3.org/2000/svg"><rect width="40" height="40" rx="20" fill="#48C95F"/><path d="M27.927 12.063A10.428 10.428 0 0 0 20.537 9c-5.78 0-10.464 4.667-10.464 10.427 0 1.823.512 3.646 1.39 5.177L10 30l5.561-1.458c1.537.802 3.22 1.24 4.976 1.24 5.78 0 10.463-4.667 10.463-10.428-.073-2.698-1.098-5.323-3.073-7.291Zm-2.342 11.083c-.22.583-1.244 1.166-1.756 1.24a4.104 4.104 0 0 1-1.61-.073c-.365-.146-.878-.292-1.463-.584-2.634-1.094-4.317-3.719-4.463-3.937-.147-.146-1.098-1.386-1.098-2.698 0-1.313.659-1.896.878-2.188.22-.291.512-.291.732-.291h.512c.146 0 .366-.073.585.437.22.51.732 1.823.805 1.896a.463.463 0 0 1 0 .437c-.073.146-.146.292-.292.438-.147.146-.293.364-.366.437-.147.146-.293.292-.147.51.147.293.659 1.095 1.464 1.824 1.024.875 1.83 1.166 2.122 1.312.293.146.439.073.585-.073.146-.145.659-.729.805-1.02.146-.292.366-.22.585-.146.22.073 1.537.729 1.756.875.293.145.44.218.513.291.073.22.073.73-.147 1.313Z" fill="#fff"/></svg></svg>